<svg id="Réteg_1" data-name="Réteg 1" xmlns="http://www.w3.org/2000/svg" xmlns:xlink="http://www.w3.org/1999/xlink" viewBox="0 0 841.89 595.276"><defs><style>.cls-1{fill:#00658c;}.cls-2{fill:none;}.cls-3{fill:url(#Névtelen_színátmenet);}.cls-4{fill:url(#Névtelen_színátmenet_2);}.cls-5{fill:url(#Névtelen_színátmenet_3);}.cls-6{fill:#7b8687;}</style><linearGradient id="Névtelen_színátmenet" y1="595.276" x2="1" y2="595.276" gradientTransform="matrix(0, -20.774, -20.774, 0, 12739.944, 313.25)" gradientUnits="userSpaceOnUse"><stop offset="0" stop-color="#00658c"/><stop offset="1" stop-color="#7b8687"/></linearGradient><linearGradient id="Névtelen_színátmenet_2" y1="595.276" y2="595.276" gradientTransform="matrix(0, -20.774, -20.774, 0, 12754.045, 313.25)" xlink:href="#Névtelen_színátmenet"/><linearGradient id="Névtelen_színátmenet_3" y1="595.276" y2="595.276" gradientTransform="matrix(0, -20.774, -20.774, 0, 12768.141, 313.25)" xlink:href="#Névtelen_színátmenet"/></defs><title>perinvest_logo</title><path class="cls-1" d="M283.736,282.49h14.029a13.079,13.079,0,0,1,4.109.6,8.922,8.922,0,0,1,3.112,1.722,7.537,7.537,0,0,1,1.971,2.677,8.508,8.508,0,0,1,.685,3.465,10.465,10.465,0,0,1-.975,4.545,10.649,10.649,0,0,1-2.677,3.528,12.411,12.411,0,0,1-4.067,2.3,15.459,15.459,0,0,1-5.147.829h-7.429l-1.619,10.626h-6.516Zm11.621,14.235a5.811,5.811,0,0,0,3.984-1.349,4.633,4.633,0,0,0,1.537-3.672,3.433,3.433,0,0,0-1.143-2.761,4.669,4.669,0,0,0-3.132-.974h-7.139l-1.329,8.756h7.222Z"/><polygon class="cls-1" points="318.977 287.927 317.939 294.982 332.921 294.982 332.092 300.461 317.109 300.461 316.072 307.35 332.755 307.35 331.925 312.788 308.726 312.788 313.249 282.49 336.45 282.49 335.62 287.927 318.977 287.927"/><path class="cls-1" d="M358.765,312.788l-7.513-11.083h-5.6l-1.66,11.083h-6.516l4.524-30.3h15.024a9.508,9.508,0,0,1,6.662,2.22,7.733,7.733,0,0,1,2.427,6,9.556,9.556,0,0,1-.58,3.32,10.753,10.753,0,0,1-1.6,2.885,10.948,10.948,0,0,1-2.47,2.3,13.858,13.858,0,0,1-3.195,1.618l8.3,11.955h-7.8ZM346.48,296.269h7.6a5.644,5.644,0,0,0,3.818-1.287,4.363,4.363,0,0,0,1.494-3.487,3.181,3.181,0,0,0-1.12-2.614,4.593,4.593,0,0,0-2.99-.913h-7.552Z"/><rect class="cls-2" width="841.89" height="595.276"/><rect class="cls-3" x="369.607" y="302.688" width="8.05" height="10.1"/><polygon class="cls-2" points="371.14 302.688 369.607 312.788 376.122 312.788 377.657 302.688 371.14 302.688"/><rect class="cls-4" x="382.957" y="292.589" width="9.55" height="20.199"/><polygon class="cls-2" points="385.992 292.589 382.957 312.788 389.473 312.788 392.507 292.589 385.992 292.589"/><rect class="cls-5" x="396.308" y="282.489" width="11.039" height="30.299"/><polygon class="cls-2" points="400.832 282.489 396.308 312.788 402.825 312.788 407.347 282.489 400.832 282.489"/><polygon class="cls-6" points="442.613 282.489 438.089 312.787 431.615 312.787 419.122 292.574 416.175 312.787 409.66 312.787 414.183 282.489 420.658 282.489 433.109 302.95 436.138 282.489 442.613 282.489"/><polygon class="cls-6" points="446.107 282.489 453.329 282.489 459.098 304.776 471.258 282.489 478.522 282.489 461.255 312.787 454.616 312.787 446.107 282.489"/><polygon class="cls-6" points="487.271 287.927 486.233 294.982 501.215 294.982 500.385 300.461 485.404 300.461 484.365 307.35 501.049 307.35 500.219 312.788 477.02 312.788 481.543 282.49 504.743 282.49 503.913 287.927 487.271 287.927"/><path class="cls-6" d="M516.086,313.41a21.43,21.43,0,0,1-6.092-.852,25.378,25.378,0,0,1-5.38-2.261l2.657-5.644a19.364,19.364,0,0,0,4.752,2.2,17.734,17.734,0,0,0,5.375.831,8.861,8.861,0,0,0,4.233-.913,3.032,3.032,0,0,0,1.7-2.864,1.775,1.775,0,0,0-.435-1.2,3.8,3.8,0,0,0-1.33-.892,18.488,18.488,0,0,0-2.26-.788q-1.37-.395-3.28-0.85-1.452-.375-2.946-0.894a9.972,9.972,0,0,1-2.719-1.431,7.258,7.258,0,0,1-1.992-2.262,6.656,6.656,0,0,1-.768-3.341,9.213,9.213,0,0,1,1.058-4.5,9.556,9.556,0,0,1,2.9-3.237,13.42,13.42,0,0,1,4.337-1.972,20.718,20.718,0,0,1,5.355-.663,21.967,21.967,0,0,1,5.374.684,19.321,19.321,0,0,1,4.836,1.888l-2.822,5.354a18.357,18.357,0,0,0-8.633-2.324,7.665,7.665,0,0,0-4.047.893,2.707,2.707,0,0,0-1.433,2.386,2.247,2.247,0,0,0,1.582,2.075,27.015,27.015,0,0,0,4.577,1.412q1.665,0.414,3.372.954a12.178,12.178,0,0,1,3.079,1.452,7.584,7.584,0,0,1,2.247,2.3,6.4,6.4,0,0,1,.874,3.466,9.556,9.556,0,0,1-1.1,4.586,10.313,10.313,0,0,1-3.015,3.465,14.375,14.375,0,0,1-4.51,2.178,19.5,19.5,0,0,1-5.551.769"/><polygon class="cls-6" points="561.848 287.927 551.763 287.927 548.027 312.788 541.511 312.788 545.246 287.927 535.078 287.927 535.908 282.49 562.677 282.49 561.848 287.927"/><rect class="cls-2" width="841.89" height="595.276"/></svg>